# xmcd CD database file
#
# Track frame offsets:
#	150
#	22859
#	42074
#	66356
#	84674
#	103345
#	125926
#	145868
#	170073
#	185017
#	207359
#	224764
#	247970
#
# Disc length: 3571 seconds
#
# Revision: 4
# Processed by: cddbd v1.5.1PL0 Copyright (c) Steve Scherf et al.
# Submitted via: CDex 1.51
#
DISCID=cb0df10d
DTITLE=Ismaël Lo - Jammu Africa
DYEAR=1996
DGENRE=Ethnic
TTITLE0=Jammu Africa
TTITLE1=Nafanta
TTITLE2=Sofia
TTITLE3=Tajabone
TTITLE4=Raciste
TTITLE5=Nabou
TTITLE6=Without Blame
TTITLE7=Dibi Dibi Rek
TTITLE8=Lotte Lo
TTITLE9=Souleymane
TTITLE10=Samba et Leuk
TTITLE11=Takou Deneu
TTITLE12=Khar
EXTD=YEAR: 1996
EXTT0=
EXTT1=
EXTT2=
EXTT3=
EXTT4=
EXTT5=
EXTT6=
EXTT7=
EXTT8=
EXTT9=
EXTT10=
EXTT11=
EXTT12=
PLAYORDER=
